<svg width="20" height="20" viewBox="0 0 20 20" fill="none" xmlns="http://www.w3.org/2000/svg">
<path d="M11.667 6.66663H3.33366C2.41449 6.66663 1.66699 7.41413 1.66699 8.33329V16.6666C1.66699 17.5858 2.41449 18.3333 3.33366 18.3333H11.667C12.5862 18.3333 13.3337 17.5858 13.3337 16.6666V8.33329C13.3337 7.41413 12.5862 6.66663 11.667 6.66663Z" fill="#657255"/>
<path d="M16.667 1.66663H8.33366C7.89163 1.66663 7.46771 1.84222 7.15515 2.15478C6.84259 2.46734 6.66699 2.89127 6.66699 3.33329V4.99996H13.3337C13.7757 4.99996 14.1996 5.17555 14.5122 5.48811C14.8247 5.80068 15.0003 6.2246 15.0003 6.66663V13.3333H16.667C17.109 13.3333 17.5329 13.1577 17.8455 12.8451C18.1581 12.5326 18.3337 12.1087 18.3337 11.6666V3.33329C18.3337 2.89127 18.1581 2.46734 17.8455 2.15478C17.5329 1.84222 17.109 1.66663 16.667 1.66663Z" fill="#657255"/>
</svg>
