<svg width="23" height="24" viewBox="0 0 23 24" fill="none" xmlns="http://www.w3.org/2000/svg">
<path d="M3.50056 0.857178C2.76174 0.857178 2.05318 1.15067 1.53076 1.67309C1.00834 2.19552 0.714844 2.90407 0.714844 3.64289L0.714844 20.3572C0.714844 21.096 1.00834 21.8046 1.53076 22.327C2.05318 22.8494 2.76174 23.1429 3.50056 23.1429H20.2148C20.9537 23.1429 21.6622 22.8494 22.1846 22.327C22.7071 21.8046 23.0006 21.096 23.0006 20.3572V3.64289C23.0006 2.90407 22.7071 2.19552 22.1846 1.67309C21.6622 1.15067 20.9537 0.857178 20.2148 0.857178L3.50056 0.857178ZM12.5541 7.12504V15.1939L15.5432 12.2034C15.608 12.1386 15.6848 12.0873 15.7694 12.0522C15.854 12.0172 15.9447 11.9992 16.0363 11.9992C16.1278 11.9992 16.2185 12.0172 16.3031 12.0522C16.3877 12.0873 16.4646 12.1386 16.5293 12.2034C16.5941 12.2681 16.6455 12.345 16.6805 12.4296C16.7155 12.5142 16.7336 12.6049 16.7336 12.6965C16.7336 12.788 16.7155 12.8787 16.6805 12.9633C16.6455 13.0479 16.5941 13.1248 16.5293 13.1895L12.3508 17.3681C12.2861 17.433 12.2092 17.4844 12.1246 17.5195C12.04 17.5546 11.9493 17.5727 11.8577 17.5727C11.7661 17.5727 11.6754 17.5546 11.5908 17.5195C11.5062 17.4844 11.4293 17.433 11.3646 17.3681L7.18606 13.1895C7.12131 13.1248 7.06994 13.0479 7.0349 12.9633C6.99986 12.8787 6.98182 12.788 6.98182 12.6965C6.98182 12.6049 6.99986 12.5142 7.0349 12.4296C7.06994 12.345 7.12131 12.2681 7.18606 12.2034C7.31683 12.0726 7.49419 11.9992 7.67913 11.9992C7.7707 11.9992 7.86138 12.0172 7.94598 12.0522C8.03058 12.0873 8.10745 12.1386 8.1722 12.2034L11.1613 15.1939V7.12504C11.1613 6.94033 11.2346 6.76319 11.3653 6.63259C11.4959 6.50198 11.673 6.42861 11.8577 6.42861C12.0424 6.42861 12.2195 6.50198 12.3502 6.63259C12.4808 6.76319 12.5541 6.94033 12.5541 7.12504Z" fill="#156353"/>
</svg>
