<svg width="25" height="25" viewBox="0 0 25 25" fill="none" xmlns="http://www.w3.org/2000/svg">
<g clip-path="url(#clip0_32_20)">
<path d="M20.8175 4.69949C19.2875 4.00949 17.6475 3.49949 15.9325 3.20949C15.9172 3.20656 15.9014 3.20845 15.8872 3.2149C15.8731 3.22135 15.8613 3.23204 15.8535 3.24549C15.6435 3.61449 15.4095 4.09549 15.2455 4.47549C13.4266 4.20373 11.5774 4.20373 9.75848 4.47549C9.57582 4.05435 9.36983 3.64372 9.14148 3.24549C9.13374 3.23188 9.12203 3.22094 9.10792 3.21415C9.0938 3.20736 9.07795 3.20504 9.06248 3.20749C7.34848 3.49749 5.70848 4.00749 4.17748 4.69849C4.16431 4.70402 4.15314 4.71344 4.14548 4.72549C1.03348 9.30049 0.180481 13.7625 0.599481 18.1685C0.600647 18.1793 0.603996 18.1897 0.609326 18.1992C0.614655 18.2086 0.621853 18.2169 0.630481 18.2235C2.44687 19.5459 4.47282 20.5533 6.62348 21.2035C6.63847 21.2081 6.65451 21.2081 6.66949 21.2035C6.68448 21.1988 6.69772 21.1898 6.70748 21.1775C7.17028 20.5586 7.58038 19.9019 7.93348 19.2145C7.93838 19.2051 7.94121 19.1948 7.94176 19.1842C7.94232 19.1736 7.9406 19.163 7.93671 19.1531C7.93282 19.1433 7.92686 19.1344 7.91923 19.127C7.9116 19.1197 7.90248 19.114 7.89248 19.1105C7.24649 18.8672 6.62057 18.5737 6.02048 18.2325C6.0097 18.2263 6.00061 18.2176 5.99404 18.2071C5.98746 18.1965 5.98361 18.1845 5.98281 18.1721C5.98202 18.1598 5.98432 18.1474 5.98949 18.1361C5.99467 18.1248 6.00257 18.115 6.01248 18.1075C6.13848 18.0145 6.26448 17.9175 6.38448 17.8205C6.39528 17.8118 6.40829 17.8062 6.42206 17.8045C6.43584 17.8027 6.44983 17.8048 6.46248 17.8105C10.3895 19.5745 14.6425 19.5745 18.5235 17.8105C18.5362 17.8044 18.5503 17.8021 18.5643 17.8037C18.5782 17.8053 18.5915 17.8107 18.6025 17.8195C18.7225 17.9175 18.8475 18.0145 18.9745 18.1075C18.9845 18.1148 18.9925 18.1245 18.9979 18.1357C19.0032 18.1469 19.0057 18.1592 19.0051 18.1716C19.0045 18.184 19.0008 18.196 18.9945 18.2067C18.9881 18.2173 18.9791 18.2262 18.9685 18.2325C18.3705 18.5765 17.7485 18.8675 17.0955 19.1095C17.0855 19.1131 17.0763 19.1189 17.0687 19.1263C17.061 19.1338 17.0551 19.1428 17.0512 19.1527C17.0473 19.1627 17.0456 19.1733 17.0462 19.184C17.0467 19.1946 17.0496 19.205 17.0545 19.2145C17.4145 19.9015 17.8265 20.5555 18.2795 21.1765C18.2889 21.1892 18.302 21.1988 18.3171 21.2038C18.3321 21.2088 18.3483 21.209 18.3635 21.2045C20.5178 20.5561 22.5471 19.5483 24.3655 18.2235C24.3744 18.2173 24.3818 18.2093 24.3873 18.2C24.3928 18.1906 24.3963 18.1803 24.3975 18.1695C24.8975 13.0755 23.5595 8.64949 20.8485 4.72749C20.8418 4.71475 20.8308 4.70481 20.8175 4.69949ZM8.52048 15.4855C7.33848 15.4855 6.36348 14.4165 6.36348 13.1055C6.36348 11.7935 7.31948 10.7255 8.52048 10.7255C9.73048 10.7255 10.6965 11.8025 10.6775 13.1055C10.6775 14.4175 9.72148 15.4855 8.52048 15.4855ZM16.4955 15.4855C15.3125 15.4855 14.3385 14.4165 14.3385 13.1055C14.3385 11.7935 15.2935 10.7255 16.4955 10.7255C17.7055 10.7255 18.6715 11.8025 18.6525 13.1055C18.6525 14.4175 17.7065 15.4855 16.4955 15.4855Z" fill="#657255"/>
</g>
<defs>
<clipPath id="clip0_32_20">
<rect width="24" height="24" fill="white" transform="translate(0.5 0.20752)"/>
</clipPath>
</defs>
</svg>
