<svg width="22" height="22" viewBox="0 0 22 22" fill="none" xmlns="http://www.w3.org/2000/svg">
<path fill-rule="evenodd" clip-rule="evenodd" d="M1.375 3.19077C1.375 2.76424 1.54444 2.35517 1.84605 2.05357C2.14765 1.75196 2.55672 1.58252 2.98325 1.58252H19.015C19.2264 1.58218 19.4357 1.62353 19.6311 1.70421C19.8265 1.78488 20.004 1.90331 20.1536 2.05269C20.3031 2.20208 20.4218 2.37949 20.5026 2.57478C20.5835 2.77007 20.6251 2.97939 20.625 3.19077V19.2225C20.6252 19.4339 20.5838 19.6433 20.503 19.8387C20.4222 20.0341 20.3037 20.2116 20.1543 20.3612C20.0048 20.5107 19.8273 20.6293 19.632 20.7102C19.4367 20.7911 19.2273 20.8326 19.0159 20.8325H2.98325C2.77198 20.8325 2.56278 20.7909 2.3676 20.71C2.17242 20.6291 1.99509 20.5106 1.84574 20.3612C1.69639 20.2117 1.57794 20.0343 1.49717 19.8391C1.4164 19.6439 1.37489 19.4347 1.375 19.2234V3.19077ZM8.9945 8.92202H11.6011V10.231C11.9774 9.47852 12.9399 8.80127 14.3862 8.80127C17.1591 8.80127 17.8162 10.3001 17.8162 13.0503V18.1445H15.0101V13.6768C15.0101 12.1105 14.6339 11.2268 13.6784 11.2268C12.3527 11.2268 11.8015 12.1796 11.8015 13.6768V18.1445H8.9945V8.92202ZM4.182 18.0246H6.989V8.80127H4.182V18.0238V18.0246ZM7.39063 5.79302C7.39592 6.03336 7.35315 6.27234 7.26483 6.49592C7.17652 6.71951 7.04443 6.9232 6.87633 7.09505C6.70822 7.2669 6.50749 7.40344 6.2859 7.49665C6.06431 7.58987 5.82633 7.63789 5.58594 7.63789C5.34554 7.63789 5.10757 7.58987 4.88598 7.49665C4.66439 7.40344 4.46365 7.2669 4.29555 7.09505C4.12744 6.9232 3.99536 6.71951 3.90704 6.49592C3.81872 6.27234 3.77596 6.03336 3.78125 5.79302C3.79164 5.32127 3.98634 4.87234 4.32365 4.54237C4.66096 4.21241 5.11407 4.02764 5.58594 4.02764C6.0578 4.02764 6.51091 4.21241 6.84823 4.54237C7.18554 4.87234 7.38024 5.32127 7.39063 5.79302Z" fill="#657255"/>
</svg>
