<svg width="13" height="13" viewBox="0 0 13 13" fill="none" xmlns="http://www.w3.org/2000/svg">
<path d="M6.5 12.1875C4.99158 12.1875 3.54494 11.5883 2.47833 10.5217C1.41172 9.45506 0.8125 8.00842 0.8125 6.5C0.8125 4.99158 1.41172 3.54494 2.47833 2.47833C3.54494 1.41172 4.99158 0.8125 6.5 0.8125C8.00842 0.8125 9.45506 1.41172 10.5217 2.47833C11.5883 3.54494 12.1875 4.99158 12.1875 6.5C12.1875 8.00842 11.5883 9.45506 10.5217 10.5217C9.45506 11.5883 8.00842 12.1875 6.5 12.1875ZM6.5 13C8.22391 13 9.87721 12.3152 11.0962 11.0962C12.3152 9.87721 13 8.22391 13 6.5C13 4.77609 12.3152 3.12279 11.0962 1.90381C9.87721 0.68482 8.22391 0 6.5 0C4.77609 0 3.12279 0.68482 1.90381 1.90381C0.68482 3.12279 0 4.77609 0 6.5C0 8.22391 0.68482 9.87721 1.90381 11.0962C3.12279 12.3152 4.77609 13 6.5 13Z" fill="#1E695A"/>
<path d="M4.2697 4.70112C4.26859 4.72736 4.27286 4.75355 4.28224 4.77808C4.29163 4.80261 4.30593 4.82496 4.32427 4.84376C4.34261 4.86256 4.3646 4.8774 4.38889 4.88739C4.41318 4.89737 4.43926 4.90228 4.46552 4.90181H5.13583C5.24795 4.90181 5.33733 4.81 5.35195 4.69869C5.42508 4.16569 5.7907 3.77731 6.44233 3.77731C6.9997 3.77731 7.50995 4.056 7.50995 4.72631C7.50995 5.24225 7.20608 5.4795 6.72589 5.84025C6.17908 6.23756 5.74602 6.7015 5.77689 7.45469L5.77933 7.631C5.78018 7.68431 5.80196 7.73514 5.83996 7.77253C5.87796 7.80993 5.92914 7.83088 5.98245 7.83087H6.64139C6.69526 7.83087 6.74693 7.80947 6.78502 7.77138C6.82312 7.73329 6.84452 7.68162 6.84452 7.62775V7.54244C6.84452 6.95906 7.06633 6.78925 7.66514 6.33506C8.15995 5.95887 8.67589 5.54125 8.67589 4.66456C8.67589 3.43688 7.63914 2.84375 6.50408 2.84375C5.47464 2.84375 4.34689 3.32312 4.2697 4.70112ZM5.53477 9.38356C5.53477 9.81662 5.88008 10.1367 6.35539 10.1367C6.8502 10.1367 7.19064 9.81662 7.19064 9.38356C7.19064 8.93506 6.84939 8.61981 6.35458 8.61981C5.88008 8.61981 5.53477 8.93506 5.53477 9.38356Z" fill="#1E695A"/>
</svg>
