<svg width="25" height="25" viewBox="0 0 25 25" fill="none" xmlns="http://www.w3.org/2000/svg">
<g clip-path="url(#clip0_32_18)">
<path d="M24.1425 5.14447C23.3075 5.51447 22.4105 5.76447 21.4675 5.87747C22.4405 5.29527 23.1685 4.37894 23.5155 3.29947C22.6014 3.84246 21.6009 4.22467 20.5575 4.42947C19.8559 3.68034 18.9266 3.1838 17.9138 3.01695C16.9011 2.8501 15.8616 3.02227 14.9568 3.50673C14.0519 3.99119 13.3323 4.76084 12.9097 5.69618C12.4871 6.63152 12.3851 7.68022 12.6195 8.67947C10.7672 8.58647 8.95515 8.10502 7.30095 7.26638C5.64674 6.42774 4.18736 5.25064 3.01752 3.81147C2.61752 4.50147 2.38752 5.30147 2.38752 6.15347C2.38708 6.92047 2.57596 7.67572 2.9374 8.35221C3.29885 9.0287 3.82168 9.60551 4.45952 10.0315C3.7198 10.0079 2.9964 9.80806 2.34952 9.44847V9.50847C2.34945 10.5842 2.72156 11.6269 3.40271 12.4595C4.08386 13.2921 5.03209 13.8634 6.08652 14.0765C5.40031 14.2622 4.68086 14.2895 3.98252 14.1565C4.28002 15.0821 4.85952 15.8915 5.63989 16.4714C6.42026 17.0513 7.36244 17.3727 8.33452 17.3905C6.68436 18.6859 4.64641 19.3886 2.54852 19.3855C2.1769 19.3856 1.8056 19.3639 1.43652 19.3205C3.566 20.6896 6.04486 21.4163 8.57652 21.4135C17.1465 21.4135 21.8315 14.3155 21.8315 8.15947C21.8315 7.95947 21.8265 7.75747 21.8175 7.55747C22.7288 6.89845 23.5154 6.08237 24.1405 5.14747L24.1425 5.14447Z" fill="#657255"/>
</g>
<defs>
<clipPath id="clip0_32_18">
<rect width="24" height="24" fill="white" transform="translate(0.5 0.20752)"/>
</clipPath>
</defs>
</svg>
