<svg width="25" height="18" viewBox="0 0 25 18" fill="none" xmlns="http://www.w3.org/2000/svg">
<path d="M23.9887 3.304C23.8492 2.78458 23.5758 2.31089 23.1957 1.93035C22.8156 1.54981 22.3423 1.27577 21.823 1.13564C19.9117 0.621582 12.25 0.621582 12.25 0.621582C12.25 0.621582 4.58828 0.621582 2.67695 1.13291C2.15748 1.27258 1.6839 1.54647 1.30377 1.92708C0.923636 2.30769 0.650342 2.78162 0.511328 3.30127C-1.19209e-07 5.21533 0 9.20752 0 9.20752C0 9.20752 -1.19209e-07 13.1997 0.511328 15.111C0.792969 16.1665 1.62422 16.9978 2.67695 17.2794C4.58828 17.7935 12.25 17.7935 12.25 17.7935C12.25 17.7935 19.9117 17.7935 21.823 17.2794C22.8785 16.9978 23.707 16.1665 23.9887 15.111C24.5 13.1997 24.5 9.20752 24.5 9.20752C24.5 9.20752 24.5 5.21533 23.9887 3.304ZM9.81641 12.8716V5.54346L16.1602 9.18018L9.81641 12.8716Z" fill="#657255"/>
</svg>
